<?xml version="1.0" standalone="no"?>
<!DOCTYPE svg PUBLIC "-//W3C//DTD SVG 20010904//EN"
 "http://www.w3.org/TR/2001/REC-SVG-20010904/DTD/svg10.dtd">
<svg version="1.0" xmlns="http://www.w3.org/2000/svg"
 width="622.000000pt" height="216.000000pt" viewBox="0 0 622.000000 216.000000"
 preserveAspectRatio="xMidYMid meet">

<g transform="translate(0.000000,216.000000) scale(0.100000,-0.100000)"
fill="#000000" stroke="none">
<path d="M1004 1740 c-391 -42 -716 -80 -723 -84 -6 -4 -11 -17 -11 -30 0 -12
45 -236 100 -497 74 -349 104 -477 117 -486 11 -9 56 -13 134 -13 l117 0 -30
-116 c-31 -126 -33 -157 -6 -162 11 -2 127 80 293 207 l275 211 204 0 c141 0
207 4 212 11 4 6 37 237 74 513 47 346 65 505 58 514 -6 7 -30 12 -57 11 -25
-1 -366 -36 -757 -79z"/>
<path d="M2297 1773 c-13 -12 -7 -40 12 -65 15 -18 35 -111 81 -372 34 -192
64 -355 67 -362 7 -19 148 -20 160 -2 4 7 31 169 59 360 43 288 56 352 73 374
12 15 21 37 21 50 0 23 -2 24 -90 24 l-90 0 0 -29 c0 -16 7 -34 15 -41 8 -7
15 -25 15 -41 0 -34 -78 -581 -84 -586 -6 -6 -12 27 -56 306 -44 282 -46 298
-25 325 8 11 15 30 15 43 0 22 -3 23 -83 23 -46 0 -87 -3 -90 -7z"/>
<path d="M5241 1771 c-46 -12 -83 -41 -104 -82 -16 -31 -17 -63 -15 -334 3
-340 2 -336 85 -376 38 -18 56 -21 112 -16 37 3 79 11 94 18 23 10 30 10 45
-4 10 -10 22 -17 25 -17 4 0 7 92 7 204 0 232 7 216 -91 216 l-59 0 0 -34 c0
-25 6 -38 25 -50 23 -15 25 -22 25 -97 0 -83 -15 -131 -45 -143 -29 -11 -70
-7 -93 10 -22 15 -22 17 -22 304 0 287 0 289 22 304 30 21 81 20 107 -1 13
-11 24 -35 28 -58 7 -48 25 -65 70 -65 l33 0 0 59 c0 67 -25 113 -77 144 -37
21 -122 30 -172 18z"/>
<path d="M3230 1744 c-45 -38 -70 -94 -70 -156 0 -78 16 -92 23 -21 8 73 28
122 68 168 36 41 24 46 -21 9z"/>
<path d="M3820 1742 c0 -16 9 -37 20 -47 19 -17 20 -31 20 -320 0 -288 -1
-303 -20 -325 -11 -13 -20 -36 -20 -52 l0 -28 183 2 182 3 3 68 3 67 -38 0
c-45 0 -58 -7 -67 -38 -7 -21 -13 -23 -64 -20 l-57 3 -3 308 c-2 296 -1 309
18 334 11 14 20 36 20 49 0 23 -2 24 -90 24 l-90 0 0 -28z"/>
<path d="M4182 1758 c-7 -7 -12 -38 -12 -71 l0 -58 38 3 c27 2 40 9 47 26 8
17 18 22 47 22 l38 0 0 -311 c0 -296 -1 -312 -20 -336 -11 -14 -20 -34 -20
-44 0 -17 9 -19 90 -19 88 0 90 1 90 24 0 13 -9 35 -20 49 -19 24 -20 38 -18
329 l3 303 38 3 c32 3 38 0 47 -22 8 -21 16 -26 45 -26 l35 0 0 64 c0 49 -4
65 -16 70 -31 12 -399 7 -412 -6z"/>
<path d="M4710 1743 c0 -14 7 -34 16 -44 15 -17 12 -41 -41 -326 -43 -229 -62
-313 -76 -329 -11 -11 -19 -32 -19 -47 l0 -27 90 0 c100 0 102 2 71 61 -16 29
-18 47 -13 85 l7 49 80 0 80 0 8 -52 c7 -46 6 -56 -12 -79 -12 -15 -21 -35
-21 -45 0 -17 9 -19 90 -19 88 0 90 1 90 24 0 13 -9 35 -20 48 -15 19 -33 106
-79 364 -47 266 -63 341 -77 351 -11 8 -48 13 -96 13 -78 0 -78 0 -78 -27z
m150 -281 c17 -101 28 -187 25 -193 -10 -15 -115 -11 -121 5 -3 7 9 93 25 191
17 97 31 180 31 183 0 3 2 3 4 1 3 -3 19 -87 36 -187z"/>
<path d="M5570 1746 c0 -13 9 -35 20 -49 19 -24 20 -40 20 -327 0 -287 -1
-303 -20 -327 -11 -14 -20 -36 -20 -50 l0 -23 183 2 182 3 3 63 3 62 -41 0
c-34 0 -42 -4 -52 -25 -11 -24 -16 -26 -72 -23 l-61 3 0 135 0 135 75 5 75 5
3 43 3 42 -68 0 c-37 0 -74 4 -81 8 -9 7 -12 39 -10 128 l3 119 58 3 c52 3 61
0 82 -22 16 -17 35 -26 55 -26 l30 0 0 64 c0 49 -4 65 -16 70 -9 3 -92 6 -185
6 l-169 0 0 -24z"/>
<path d="M3310 1729 c-32 -13 -68 -47 -86 -81 -16 -31 -18 -96 -4 -118 7 -11
10 -7 10 18 0 47 36 116 81 157 41 37 41 40 -1 24z"/>
<path d="M3386 1725 c-56 -20 -104 -71 -121 -129 -19 -62 -13 -70 13 -19 27
51 89 109 148 138 39 20 44 24 24 24 -14 0 -42 -6 -64 -14z"/>
<path d="M3141 1694 c-49 -62 -51 -144 -6 -199 l25 -30 -11 30 c-18 48 -15
145 5 183 22 43 15 51 -13 16z"/>
<path d="M3065 1671 c-33 -74 -15 -170 42 -222 l25 -24 -23 45 c-20 38 -24 59
-24 143 0 53 0 97 -1 97 -1 0 -9 -18 -19 -39z"/>
<path d="M3400 1672 c-45 -20 -80 -62 -95 -112 -6 -20 1 -15 36 23 35 39 58
54 114 73 l70 23 -55 0 c-30 0 -62 -3 -70 -7z"/>
<path d="M3475 1641 c-57 -14 -107 -48 -127 -86 -11 -19 -11 -19 18 0 72 47
108 59 182 60 l74 0 -39 17 c-41 19 -60 20 -108 9z"/>
<path d="M3005 1577 c-11 -58 8 -110 57 -151 49 -42 73 -48 36 -8 -34 36 -59
86 -73 147 l-12 50 -8 -38z"/>
<path d="M3442 1569 c-23 -12 -47 -30 -53 -40 -9 -17 -6 -16 28 3 44 26 161
31 203 8 22 -12 24 -12 12 2 -20 24 -76 48 -114 48 -18 0 -52 -10 -76 -21z"/>
<path d="M2953 1523 c4 -76 38 -125 110 -162 59 -29 71 -23 20 11 -47 31 -90
92 -115 161 l-19 52 4 -62z"/>
<path d="M3468 1524 c-58 -18 -63 -29 -9 -20 54 8 148 -11 201 -41 l45 -26
-30 33 c-34 37 -98 70 -135 69 -14 0 -46 -7 -72 -15z"/>
<path d="M3465 1471 c-14 -6 -6 -9 32 -14 61 -7 106 -28 151 -70 37 -36 42
-25 10 23 -40 58 -128 86 -193 61z"/>
<path d="M2930 1455 c1 -35 37 -101 68 -124 19 -13 52 -24 84 -27 l53 -5 -60
29 c-63 31 -103 67 -129 117 -12 23 -16 26 -16 10z"/>
<path d="M3502 1416 c62 -24 124 -72 158 -123 29 -42 32 -44 26 -18 -20 84
-89 146 -168 152 l-53 3 37 -14z"/>
<path d="M2890 1382 c0 -15 58 -90 82 -106 34 -22 110 -36 144 -27 28 7 26 8
-25 20 -67 14 -145 56 -177 94 -13 16 -24 24 -24 19z"/>
<path d="M3505 1365 c43 -22 92 -80 115 -139 l21 -51 -4 53 c-3 33 -12 64 -24
80 -28 38 -81 72 -112 72 l-26 0 30 -15z"/>
<path d="M3498 1319 c44 -45 71 -98 87 -173 l12 -61 8 38 c16 83 -22 165 -96
206 l-44 25 33 -35z"/>
<path d="M3489 1248 c28 -57 38 -134 23 -177 -6 -17 -9 -31 -6 -31 11 0 44 87
44 119 0 38 -31 98 -64 122 -22 17 -22 17 3 -33z"/>
<path d="M2940 1260 c16 -30 68 -62 109 -67 43 -6 103 10 121 32 10 12 6 12
-26 3 -51 -14 -117 -3 -171 26 -37 21 -42 22 -33 6z"/>
<path d="M3455 1221 c14 -63 8 -147 -14 -196 l-21 -50 29 32 c52 56 63 130 31
201 -22 48 -34 55 -25 13z"/>
<path d="M3412 1175 c0 -66 -20 -126 -54 -162 -27 -29 -15 -30 24 -2 54 39 76
141 43 199 -13 24 -14 22 -13 -35z"/>
<path d="M3175 1189 c-48 -22 -151 -25 -210 -4 l-40 14 29 -24 c66 -53 172
-51 237 5 40 34 38 35 -16 9z"/>
<path d="M3240 1184 c-8 -8 -34 -27 -58 -41 -35 -21 -59 -27 -108 -27 -55 -1
-60 -3 -41 -13 12 -7 45 -12 73 -13 60 0 107 27 137 78 20 34 18 43 -3 16z"/>
<path d="M3368 1150 c-20 -65 -66 -131 -117 -166 -29 -21 -31 -24 -11 -19 96
28 157 113 148 205 -3 35 -3 34 -20 -20z"/>
<path d="M3322 1159 c-16 -46 -75 -106 -127 -130 -38 -17 -38 -19 -12 -19 84
0 167 85 155 161 -3 21 -5 20 -16 -12z"/>
<path d="M3243 1130 c-51 -47 -121 -80 -172 -80 -21 0 -23 -2 -11 -10 52 -33
175 16 216 86 15 25 25 47 23 48 -2 2 -27 -17 -56 -44z"/>
<path d="M2820 561 l0 -171 56 0 c67 0 92 12 109 53 17 41 9 79 -20 107 l-24
22 21 28 c15 20 18 36 13 58 -9 45 -38 65 -100 70 l-55 4 0 -171z m117 126 c6
-7 12 -19 13 -27 7 -54 -16 -80 -71 -80 l-39 0 0 66 0 67 43 -7 c23 -4 47 -12
54 -19z m13 -147 c26 -26 26 -80 0 -108 -15 -16 -32 -22 -65 -22 l-45 0 0 75
0 75 45 0 c32 0 51 -6 65 -20z"/>
<path d="M3020 560 c0 -107 4 -170 10 -170 6 0 10 30 10 70 l0 70 35 0 c33 0
37 -4 72 -70 21 -38 44 -70 51 -70 17 0 17 0 -23 70 -40 70 -41 76 -20 84 28
11 47 72 35 115 -12 47 -55 71 -124 71 l-46 0 0 -170z m132 123 c25 -23 24
-87 -2 -113 -14 -14 -33 -20 -65 -20 l-45 0 0 81 0 82 47 -7 c25 -3 55 -14 65
-23z"/>
<path d="M3247 723 c-4 -3 -7 -80 -7 -170 0 -138 2 -163 15 -163 13 0 15 26
15 170 0 155 -4 183 -23 163z"/>
<path d="M3345 705 c-24 -23 -25 -30 -25 -145 0 -67 4 -130 10 -140 13 -24 64
-41 101 -33 43 8 59 37 59 110 l0 63 -45 0 c-25 0 -45 -4 -45 -10 0 -5 16 -10
35 -10 l35 0 0 -50 c0 -64 -26 -95 -74 -86 -49 10 -56 28 -56 151 0 129 11
155 64 155 39 0 66 -26 66 -63 0 -15 5 -27 10 -27 20 0 11 69 -12 90 -32 29
-92 27 -123 -5z"/>
<path d="M3530 560 c0 -102 4 -170 10 -170 5 0 10 35 12 78 l3 77 63 3 62 3 0
-81 c0 -64 3 -80 15 -80 13 0 15 26 15 170 0 144 -2 170 -15 170 -12 0 -15
-16 -15 -80 l0 -80 -65 0 -65 0 0 80 c0 47 -4 80 -10 80 -6 0 -10 -63 -10
-170z"/>
<path d="M3730 715 c0 -10 11 -15 35 -15 l35 0 0 -155 c0 -131 2 -155 15 -155
13 0 15 24 15 155 l0 155 35 0 c24 0 35 5 35 15 0 12 -16 15 -85 15 -69 0 -85
-3 -85 -15z"/>
<path d="M4038 719 c-25 -14 -38 -72 -38 -164 0 -102 13 -148 45 -163 33 -15
82 -5 100 22 17 23 20 86 5 86 -5 0 -10 -13 -10 -30 0 -42 -34 -74 -68 -65
-15 4 -30 12 -34 18 -24 38 -22 243 2 271 7 9 27 16 46 16 37 0 54 -21 54 -64
0 -14 5 -26 10 -26 18 0 11 57 -11 84 -22 28 -68 35 -101 15z"/>
<path d="M4242 718 c-31 -15 -37 -45 -37 -174 0 -119 6 -137 53 -155 32 -12
99 6 112 31 5 10 10 73 10 140 0 115 -1 122 -25 145 -26 27 -72 32 -113 13z
m98 -28 c18 -18 20 -33 20 -129 0 -128 -12 -155 -71 -153 -51 1 -59 20 -59
149 0 100 2 115 20 133 11 11 31 20 45 20 14 0 34 -9 45 -20z"/>
<path d="M4420 561 c0 -212 18 -235 22 -28 l3 142 64 -142 c36 -80 70 -143 78
-143 10 0 13 35 13 170 0 208 -18 234 -22 33 l-3 -138 -57 120 c-70 145 -71
148 -86 153 -9 3 -12 -40 -12 -167z"/>
<path d="M4650 560 c0 -210 18 -233 22 -28 l3 142 64 -142 c37 -82 70 -142 77
-142 11 0 14 33 14 170 0 208 -18 234 -22 33 l-3 -138 -67 138 c-37 75 -71
137 -77 137 -7 0 -11 -56 -11 -170z"/>
<path d="M4870 560 l0 -170 85 0 c104 0 114 18 13 22 l-73 3 -3 68 -3 67 76 0
c96 0 98 18 3 22 l-73 3 -3 63 -3 62 76 0 c60 0 75 3 75 15 0 12 -16 15 -85
15 l-85 0 0 -170z"/>
<path d="M5095 718 c-11 -6 -23 -16 -27 -22 -4 -6 -8 -70 -8 -142 0 -119 2
-133 20 -149 29 -26 89 -23 112 5 19 24 25 90 8 90 -5 0 -10 -16 -10 -35 0
-26 -6 -39 -25 -51 -25 -16 -63 -12 -77 10 -4 6 -8 66 -8 133 0 135 7 153 60
153 32 0 50 -23 50 -64 0 -14 5 -26 10 -26 6 0 10 16 10 35 0 60 -61 94 -115
63z"/>
<path d="M5240 715 c0 -11 11 -15 40 -15 l40 0 0 -155 c0 -97 4 -155 10 -155
6 0 10 58 10 155 l0 155 35 0 c24 0 35 5 35 15 0 12 -16 15 -85 15 -69 0 -85
-3 -85 -15z"/>
</g>
</svg>
