<?xml version="1.0" standalone="no"?>
<!DOCTYPE svg PUBLIC "-//W3C//DTD SVG 20010904//EN"
 "http://www.w3.org/TR/2001/REC-SVG-20010904/DTD/svg10.dtd">
<svg version="1.0" xmlns="http://www.w3.org/2000/svg"
 width="614.000000pt" height="202.000000pt" viewBox="0 0 614.000000 202.000000"
 preserveAspectRatio="xMidYMid meet">

<g transform="translate(0.000000,202.000000) scale(0.100000,-0.100000)"
fill="#000000" stroke="none">
<path d="M0 1010 l0 -1010 3070 0 3070 0 0 1010 0 1010 -3070 0 -3070 0 0
-1010z m1768 663 c12 -26 -123 -1013 -140 -1024 -7 -5 -102 -9 -211 -9 l-197
0 -253 -193 c-292 -224 -302 -231 -322 -223 -21 8 -19 35 14 163 16 62 26 115
23 118 -3 3 -61 5 -128 5 -68 0 -125 4 -128 8 -6 11 -206 963 -206 985 0 10 6
20 14 23 17 6 1433 161 1488 163 26 1 40 -4 46 -16z m652 -52 c0 -16 -7 -34
-15 -41 -21 -17 -20 -34 25 -320 42 -267 50 -313 55 -308 2 2 22 135 45 297
41 278 42 295 26 321 -9 16 -16 40 -16 54 l0 26 90 0 c90 0 90 0 90 -25 0 -14
-9 -38 -20 -53 -16 -21 -30 -97 -71 -372 -29 -190 -56 -351 -62 -357 -14 -19
-153 -18 -160 2 -4 8 -34 170 -67 361 -46 262 -66 354 -81 372 -10 14 -19 35
-19 48 0 23 2 24 90 24 l90 0 0 -29z m2905 18 c78 -21 115 -76 115 -170 l0
-61 -37 7 c-45 8 -63 21 -63 45 0 38 -22 78 -50 90 -36 15 -87 5 -100 -20 -6
-11 -10 -131 -10 -294 0 -263 1 -277 20 -296 37 -37 112 -19 130 33 5 16 10
61 10 99 0 61 -3 72 -25 92 -17 15 -25 34 -25 55 l0 32 73 -3 72 -3 3 -207 c2
-173 0 -208 -12 -208 -7 0 -19 6 -25 14 -10 12 -18 12 -58 -1 -60 -21 -174
-13 -211 14 -59 43 -62 61 -62 376 0 309 3 329 52 375 44 40 124 52 203 31z
m-2130 -44 c-36 -48 -53 -95 -64 -180 l-7 -50 -13 51 c-18 72 -2 126 54 181
56 57 74 55 30 -2z m755 21 c0 -13 -9 -35 -20 -49 -19 -24 -20 -40 -20 -325 0
-336 -2 -325 72 -320 35 2 45 8 56 31 11 23 19 27 58 27 l45 0 -3 -67 -3 -68
-182 -3 -183 -2 0 28 c0 16 9 41 20 55 19 24 20 40 20 320 0 279 -1 296 -20
320 -11 14 -20 37 -20 51 l0 26 90 0 c88 0 90 -1 90 -24z m610 -2 c6 -14 10
-45 10 -70 l0 -44 -40 0 c-34 0 -42 4 -52 25 -10 22 -17 26 -47 23 l-36 -3 -3
-299 c-2 -284 -1 -300 18 -331 11 -18 20 -42 20 -54 0 -20 -5 -21 -90 -21
-101 0 -107 5 -70 65 19 31 20 47 18 336 l-3 304 -32 3 c-27 3 -35 -1 -45 -22
-9 -22 -18 -26 -55 -26 l-43 0 0 44 c0 25 4 56 10 70 l10 26 210 0 210 0 10
-26z m284 4 c8 -13 40 -171 71 -353 44 -253 62 -335 76 -351 11 -11 19 -32 19
-47 l0 -27 -90 0 c-81 0 -90 2 -90 19 0 10 9 30 20 44 17 22 19 33 12 79 l-7
53 -80 0 -80 0 -6 -50 c-5 -39 -2 -57 12 -81 35 -59 30 -64 -71 -64 l-90 0 0
27 c0 15 8 36 19 47 13 16 33 101 75 329 52 278 56 309 42 323 -9 8 -16 29
-16 45 l0 29 85 0 c77 0 86 -2 99 -22z m1044 -50 c3 -65 2 -68 -20 -68 -41 0
-67 12 -73 32 -6 16 -15 19 -68 16 l-62 -3 0 -120 0 -120 75 -5 75 -5 3 -47 3
-47 -78 -3 -78 -3 -3 -124 c-2 -82 1 -128 9 -137 7 -8 31 -14 59 -14 40 0 52
4 67 24 11 15 33 27 56 32 l38 6 -3 -68 -3 -69 -182 -3 -183 -2 0 23 c0 14 9
36 20 50 19 24 20 40 20 325 0 284 -1 301 -20 325 -11 14 -20 37 -20 51 l0 26
183 -2 182 -3 3 -67z m-2593 30 c-58 -32 -115 -122 -115 -181 0 -16 -4 -26
-10 -22 -15 9 -12 92 4 123 16 30 63 77 86 85 8 3 24 6 35 6 l20 0 -20 -11z
m81 -12 c-61 -30 -109 -77 -148 -141 l-30 -50 7 40 c9 50 26 83 63 118 32 31
92 56 132 56 20 0 15 -4 -24 -23z m-338 -33 c-16 -58 -4 -152 25 -211 26 -52
26 -52 3 -37 -28 19 -62 79 -71 126 -7 40 6 102 30 137 22 31 25 28 13 -15z
m66 -8 c-18 -43 -20 -137 -5 -179 14 -34 14 -39 1 -31 -21 13 -50 86 -50 125
0 45 11 72 43 107 27 30 31 24 11 -22z m349 4 c12 0 -4 -9 -36 -19 -66 -21
-120 -59 -148 -104 -30 -49 -24 -2 6 49 29 50 103 90 143 79 8 -2 23 -4 35 -5z
m104 -53 l28 -16 -41 6 c-58 9 -143 -12 -199 -47 -26 -16 -50 -28 -53 -25 -10
10 78 85 111 95 41 13 119 6 154 -13z m-579 -46 c2 -59 27 -111 72 -157 37
-37 22 -43 -28 -13 -35 22 -71 87 -72 131 0 22 18 89 24 89 1 0 3 -23 4 -50z
m555 -3 c18 -8 38 -21 45 -30 12 -14 9 -14 -35 -1 -56 18 -120 11 -175 -17
-31 -16 -36 -17 -31 -4 3 9 22 27 42 40 41 29 103 33 154 12z m-591 -102 c17
-31 75 -90 118 -119 29 -19 17 -21 -31 -5 -42 14 -93 61 -114 105 -8 17 -15
54 -14 81 l0 48 13 -40 c7 -22 20 -53 28 -70z m601 53 c38 -11 116 -73 105
-83 -3 -3 -25 6 -50 20 -57 32 -123 44 -185 35 -26 -4 -50 -6 -52 -4 -8 7 85
44 113 44 16 0 47 -5 69 -12z m15 -68 c29 -18 72 -73 72 -93 0 -5 -19 7 -41
27 -46 39 -113 66 -168 67 -29 0 -32 2 -16 9 38 16 118 11 153 -10z m-579
-107 c19 -13 52 -29 75 -35 l41 -13 -42 -3 c-81 -6 -154 51 -168 133 l-8 40
34 -50 c19 -27 49 -60 68 -72z m544 63 c61 -26 118 -104 117 -159 -1 -18 -4
-15 -20 14 -28 53 -111 123 -167 142 l-48 16 43 0 c23 1 57 -5 75 -13z m-553
-125 c25 -12 67 -21 95 -21 43 -1 47 -2 30 -12 -11 -7 -42 -12 -70 -12 -66 0
-129 35 -161 90 -35 59 -30 64 19 17 23 -23 62 -51 87 -62z m545 70 c42 -24
75 -86 74 -141 l0 -45 -20 51 c-18 48 -80 117 -135 151 -31 20 44 4 81 -16z
m-29 -47 c58 -43 90 -146 65 -209 -7 -16 -10 -9 -16 30 -10 70 -40 134 -83
178 -41 42 -22 42 34 1z m-15 -66 c33 -46 37 -132 9 -177 -25 -40 -33 -37 -20
10 16 56 12 93 -20 155 -16 32 -30 60 -30 62 0 11 43 -24 61 -50z m-447 -22
c28 -1 67 2 86 6 l35 8 -40 -25 c-64 -40 -141 -31 -197 23 -42 39 -34 46 18
16 34 -20 61 -28 98 -28z m403 2 c11 -22 17 -56 18 -99 0 -56 -4 -72 -28 -107
-39 -56 -60 -62 -34 -9 24 49 35 171 19 217 -15 40 3 39 25 -2z m-39 -56 c13
-57 -1 -107 -43 -149 -35 -35 -72 -48 -42 -15 33 36 57 106 57 167 0 66 13 65
28 -3z m-234 17 c-61 -68 -183 -74 -251 -14 l-28 25 44 -15 c58 -20 135 -18
196 4 28 10 52 19 54 20 2 0 -4 -8 -15 -20z m176 -92 c-14 -47 -65 -106 -107
-123 -53 -23 -60 -16 -16 16 51 37 97 109 115 175 l13 50 3 -40 c2 -22 -1 -57
-8 -78z m-134 75 c-33 -63 -100 -94 -174 -80 -68 12 -72 25 -7 26 58 0 149 35
175 67 19 23 22 18 6 -13z m94 -11 c0 -75 -79 -152 -154 -150 l-41 1 33 11
c49 15 117 81 138 132 11 25 20 45 22 45 1 0 2 -17 2 -39z m-68 -44 c-46 -64
-134 -100 -199 -82 -27 8 -26 8 16 16 65 12 125 45 168 92 47 52 58 33 15 -26z
m-327 -411 c30 -20 36 -60 15 -101 -17 -33 -17 -34 6 -56 34 -32 34 -100 -1
-134 -20 -21 -34 -25 -85 -25 l-60 0 0 171 0 172 51 -6 c28 -4 62 -13 74 -21z
m221 -7 c40 -38 36 -123 -9 -154 l-21 -15 38 -70 c24 -46 33 -70 24 -70 -7 0
-29 30 -48 68 -33 63 -37 67 -72 70 l-38 3 0 -70 c0 -41 -4 -71 -10 -71 -6 0
-10 64 -10 171 l0 172 62 -7 c42 -4 69 -13 84 -27z m104 -139 c0 -107 -4 -170
-10 -170 -6 0 -10 63 -10 170 0 107 4 170 10 170 6 0 10 -63 10 -170z m201
144 c20 -18 27 -84 9 -84 -5 0 -10 13 -10 29 0 39 -24 61 -65 61 -55 0 -65
-25 -65 -157 0 -100 2 -115 20 -133 24 -24 57 -26 88 -4 18 12 22 25 22 70 l0
54 -35 0 c-19 0 -35 5 -35 10 0 6 20 10 45 10 l45 0 0 -64 c0 -91 -21 -111
-107 -107 -13 1 -32 10 -43 21 -18 18 -20 33 -20 141 0 126 7 154 43 169 30
13 85 5 108 -16z m79 -54 l0 -80 65 0 65 0 0 81 c0 60 3 80 13 77 9 -4 13 -49
15 -171 2 -144 0 -167 -13 -167 -12 0 -15 15 -15 80 l0 81 -62 -3 -63 -3 -3
-77 c-2 -43 -7 -78 -12 -78 -6 0 -10 68 -10 170 0 107 4 170 10 170 6 0 10
-33 10 -80z m350 65 c0 -10 -11 -15 -35 -15 l-35 0 0 -155 c0 -131 -2 -155
-15 -155 -13 0 -15 24 -15 155 l0 155 -35 0 c-24 0 -35 5 -35 15 0 12 16 15
85 15 69 0 85 -3 85 -15z m229 -2 c24 -20 41 -93 22 -93 -6 0 -11 12 -11 26 0
44 -17 64 -55 64 -54 0 -65 -26 -64 -145 1 -123 7 -147 41 -159 40 -14 78 14
78 59 0 19 5 35 11 35 15 0 3 -80 -15 -98 -20 -21 -82 -19 -106 3 -18 16 -20
30 -20 150 0 133 6 156 40 168 29 11 58 7 79 -10z m234 -14 c14 -17 17 -41 17
-134 0 -63 -4 -125 -10 -139 -10 -28 -61 -47 -104 -39 -48 9 -56 35 -56 174 0
131 4 144 50 162 28 11 85 -2 103 -24z m147 -111 l69 -143 0 143 c1 87 5 142
11 142 6 0 10 -63 10 -170 0 -132 -3 -170 -13 -170 -7 0 -39 60 -72 133 -32
72 -62 136 -67 142 -4 5 -8 -55 -8 -133 0 -88 -4 -142 -10 -142 -6 0 -10 63
-10 170 0 114 4 170 11 170 6 0 41 -64 79 -142z m228 5 l67 -138 3 138 c4 201
22 175 22 -33 0 -135 -3 -170 -13 -170 -8 0 -42 63 -78 143 l-64 142 -3 -142
c-4 -206 -22 -184 -22 27 0 111 4 170 10 170 6 0 41 -62 78 -137z m302 122 c0
-12 -15 -15 -75 -15 l-75 0 0 -65 0 -65 75 0 c43 0 75 -4 75 -10 0 -6 -32 -10
-75 -10 l-75 0 0 -70 0 -70 75 0 c43 0 75 -4 75 -10 0 -6 -35 -10 -85 -10
l-85 0 0 163 c0 90 3 167 7 170 3 4 42 7 85 7 63 0 78 -3 78 -15z m145 -10
c25 -24 35 -85 15 -85 -5 0 -10 12 -10 26 0 43 -17 64 -53 64 -53 0 -57 -11
-57 -151 0 -103 3 -131 16 -143 33 -34 94 -5 94 44 0 16 5 32 10 35 18 11 11
-62 -8 -85 -25 -31 -89 -31 -114 0 -15 19 -18 42 -18 149 0 131 2 140 35 159
32 18 64 14 90 -13z m225 10 c0 -10 -11 -15 -35 -15 l-35 0 0 -155 c0 -97 -4
-155 -10 -155 -6 0 -10 58 -10 155 l0 155 -40 0 c-29 0 -40 4 -40 15 0 12 16
15 85 15 69 0 85 -3 85 -15z"/>
<path d="M4771 1517 c0 -5 -15 -88 -31 -185 -17 -97 -28 -182 -26 -189 6 -15
111 -19 120 -4 3 4 -8 87 -24 182 -31 181 -37 210 -39 196z"/>
<path d="M2790 516 l0 -66 40 0 c103 0 105 113 2 127 l-42 6 0 -67z"/>
<path d="M2790 355 l0 -75 39 0 c22 0 47 3 56 6 24 9 44 55 38 87 -7 37 -39
57 -90 57 l-43 0 0 -75z"/>
<path d="M2990 501 l0 -81 45 0 c48 0 84 24 86 58 4 63 -20 92 -85 99 l-46 6
0 -82z"/>
<path d="M4197 562 c-22 -24 -25 -238 -3 -267 17 -24 69 -24 96 0 18 16 20 31
20 132 0 100 -2 115 -20 133 -25 25 -72 26 -93 2z"/>
</g>
</svg>
